<?xml version="1.0" encoding="UTF-8"?>
<svg id="Capa_1" data-name="Capa 1" xmlns="http://www.w3.org/2000/svg" version="1.1" viewBox="0 0 20 20">
  <defs>
    <style>
      .cls-1 {
        fill: #1d1a4c;
        stroke-width: 0px;
      }
    </style>
  </defs>
  <path class="cls-1" d="M.2,10c0-1.9,0-3.9,0-5.8C.3,1.8,1.8.3,4.1.2c.9,0,1.9,0,2.8,0,.7,0,1.1.4,1.1.9,0,.6-.4,1-1.1,1-1,0-2,0-3.1,0-1,.1-1.5.7-1.6,1.7-.1.9,0,1.8,0,2.7,0,2.8,0,5.5,0,8.3,0,2.4.5,2.9,2.9,2.9.6,0,1.3,0,1.9,0,.6,0,1,.4,1,.9,0,.5-.3,1-.9,1-1.3,0-2.5.1-3.8-.1-1.8-.3-3.1-1.8-3.1-3.6,0-2,0-4,0-6.1h0Z"/>
  <path class="cls-1" d="M16.4,11c-3.1,0-6.1,0-9,0-.3,0-.5,0-.8,0-.4-.2-.6-.5-.6-.9,0-.4.2-.7.6-.9.2-.1.5,0,.8,0,2.8,0,5.5,0,8.3,0,.2,0,.4,0,.7-.1-.9-.9-1.8-1.8-2.7-2.6-.2-.2-.3-.3-.5-.5-.4-.4-.4-1,0-1.4.4-.4,1-.4,1.4,0,.7.6,1.3,1.3,2,2,.9.9,1.8,1.8,2.8,2.7.6.6.6,1.1,0,1.7-1.5,1.5-3,3-4.6,4.5-.5.5-1.1.6-1.6.2-.4-.4-.4-1,.2-1.5,1-1,2-2,3.1-3Z"/>
</svg>